# xmcd CD database file
#
# Track frame offsets:
#	150
#	2647
#	23850
#	41728
#	54320
#	67437
#	80019
#	102917
#	118379
#	131038
#	148076
#	160300
#	171740
#	188484
#	201337
#	219317
#	232716
#	245910
#	269440
#	280935
#	294015
#
# Disc length: 4078 seconds
#
# Revision: 0
# Processed by: cddbd v1.5.1PL0 Copyright (c) Steve Scherf et al.
# Submitted via: CDex 1.50Beta7
#
DISCID=450fec15
DTITLE=Gunter Gabriel - Aus dem Leben gegriffen
DYEAR=1900
DGENRE=Country
TTITLE0=Intro
TTITLE1=Ehrbares Mädchen
TTITLE2=Komm Charly, fang mich Charly
TTITLE3=Ich lieb' Bier
TTITLE4=Fraulein
TTITLE5=König der Tramps
TTITLE6=Ich bin bei dir
TTITLE7=Einsamer Weintrinker
TTITLE8=Ruby
TTITLE9=Jackson
TTITLE10=Rocky Top
TTITLE11=Geisternachtexpress
TTITLE12=Tina, weine nicht
TTITLE13=500 Meilen von zu Haus
TTITLE14=Rheingold - Trans - Europa
TTITLE15=Adios Amigo
TTITLE16=Das grüne Gras zu Haus
TTITLE17=Ehrbares Mädchen
TTITLE18=San Quentin
TTITLE19=Ho - Ho - Joe
TTITLE20=Wooden Heart ( Muss i denn zum Städtele hinaus )
EXTD=
EXTT0=
EXTT1=
EXTT2=
EXTT3=
EXTT4=
EXTT5=
EXTT6=
EXTT7=
EXTT8=
EXTT9=
EXTT10=
EXTT11=
EXTT12=
EXTT13=
EXTT14=
EXTT15=
EXTT16=
EXTT17=
EXTT18=
EXTT19=
EXTT20=
PLAYORDER=
